<?xml version="1.0" encoding="UTF-8"?> <svg xmlns="http://www.w3.org/2000/svg" xmlns:xlink="http://www.w3.org/1999/xlink" version="1.1" id="Calque_1" x="0px" y="0px" width="377.581px" height="231.893px" viewBox="0 0 377.581 231.893" xml:space="preserve"> <path fill="#001973" d="M119.987,116.458c4.664,6.802,15.937,8.357,24.683,2.527l28.57-18.658c3.304-2.138,3.693-5.248,1.749-7.385 c-2.138-2.332-4.664-1.944-7.58,0l-28.57,19.047c-4.081,2.721-9.329,3.498-12.05-0.389c-2.915-4.276-0.777-8.551,3.887-12.05 l17.88-13.022c3.693-2.721,3.693-5.442,1.555-7.58c-2.332-2.332-5.248-1.36-7.968,0.583l-16.52,12.244 C114.739,99.938,114.739,108.878,119.987,116.458z M79.738,180.835l18.481-26.479c6.414-9.329,4.664-18.658-3.11-24.1 c-7.968-5.831-17.88-2.915-24.1,5.442l-12.068,15.206c-1.36,1.749-0.972,3.498,0.389,4.47c1.555,1.166,3.304,0.777,4.664-0.972 l11.29-13.652c4.664-6.025,10.106-8.94,15.937-5.053c5.831,3.887,4.859,10.301,0.583,16.52l-17.315,24.73 c-1.36,1.749-1.166,3.498,0.583,4.859C76.822,182.973,78.572,182.584,79.738,180.835z M65.957,125.981 c11.661,2.138,20.407-3.498,22.35-13.216c1.944-9.718-2.721-19.241-15.937-22.35l-19.63-4.47c-2.721-0.583-4.081,0.972-4.081,3.304 v3.498c0,2.138,1.555,3.498,3.304,3.887l16.714,4.081c7.774,1.944,11.272,4.276,10.301,10.106 c-0.972,5.636-5.831,6.219-12.827,5.053l-5.636-0.972c-2.527-0.389-4.276,0.777-4.276,3.304v2.138c0,2.332,0.583,3.887,3.304,4.47 L65.957,125.981z M127.178,170.487l2.138-1.166c3.498-1.749,4.276-4.859,1.749-7.968l-9.523-12.244 c-3.693-4.859-3.887-7.968-1.749-9.912c2.527-2.138,5.442-1.36,9.135,2.915l16.714,20.018c2.332,2.721,5.053,3.11,8.163,1.36 l2.138-1.166c3.498-2.138,4.081-5.053,1.36-8.163l-17.103-20.407c-8.746-10.301-20.796-9.912-28.375-3.498 c-7.968,6.608-8.163,17.492-0.194,28.181l7.58,10.301C121.347,171.459,124.068,172.042,127.178,170.487z M102.301,100.326 c12.244,0,20.213-9.523,20.407-24.294l0.389-16.131c0-2.915-1.944-4.276-4.664-2.721l-7.968,4.081 c-1.944,0.972-2.721,2.332-2.721,4.47v11.467c0,4.859-1.166,9.718-5.442,9.718c-4.664,0-5.636-4.859-5.636-10.106L96.47,52.516 c0-2.915-2.138-4.276-4.664-2.915l-7.58,4.081c-1.749,0.972-2.721,2.527-2.721,4.664v16.714 C81.505,91.192,88.307,100.326,102.301,100.326z"></path> <path fill="#FE4229" d="M313.293,90.307c1.788,0,3.083,0.247,4.747,0.74l2.158-6.042c-2.466-0.678-4.624-1.171-7.336-1.171 c-8.569,0-13.563,5.179-13.563,13.44v14.928c-1.093,0.979-2.347,1.594-3.946,1.594c-1.171,0-3.144-0.493-3.144-3.144V94.129 c-3.884-1.603-7.645-3.329-13.501-3.329c-9.124,0-13.748,6.781-13.748,14.549c0,2.195,0.365,4.404,1.116,6.42 c-1.322,1.286-3.294,2.335-5.123,2.335c-1.171,0-2.404-0.555-2.404-3.452V82.477h-7.521v9.864c-1.726-0.678-3.822-1.48-6.473-1.48 c-8.816,0-13.501,6.412-13.501,15.104c0,2.013,0.243,3.886,0.742,5.566c-0.885,1.132-1.958,1.956-3.332,1.956 c-2.959,0-3.822-2.219-3.822-5.61v-25.4h-8.631v25.831c-2.158,2.959-4.685,3.884-8.138,3.884c-4.932,0-7.028-3.267-7.028-9.247 V82.477h-8.569v21.516c0,10.234,5.98,15.844,15.166,15.967c4.747,0.062,7.706-1.171,10.789-4.562c1.233,2.404,4.562,4.5,9.494,4.562 c2.853,0.035,5.262-1.341,7.161-3.169c2.093,2.004,5.076,3.169,9.053,3.169c3.144,0,6.473-1.541,8.261-3.576 c1.726,2.466,4.624,3.637,8.199,3.576c3.456-0.061,6.726-1.378,8.592-3.474c2.057,2.114,4.934,3.474,8.731,3.474 c3.021,0,6.35-1.541,8.138-3.576c1.726,2.466,4.624,3.637,8.199,3.576c1.866-0.033,3.672-0.647,5.24-1.532v7.142h7.275l0.062-17.077 h9.186v-6.35h-9.186v-3.637C306.635,93.451,308.854,90.307,313.293,90.307z M251.026,110.651c-1.171,1.665-4.131,3.144-6.473,3.144 c-4.377,0-6.412-3.699-6.412-7.83c0-5.733,2.959-9.247,7.645-9.247c1.726,0,3.822,0.678,5.24,1.295V110.651z M284.996,110.651 c-1.171,1.665-4.131,3.144-6.288,3.144c-4.932,0-6.781-4.254-6.781-8.446c0-4.131,2.096-8.261,6.781-8.261 c2.651,0,4.624,0.617,6.288,1.48V110.651z"></path> <g> <g> <path fill="#FE4229" d="M195.826,141.12h7.417v-6.591h2.931v16.006h-2.931v-6.962h-7.417v6.962h-2.931v-16.006h2.931V141.12z"></path> <path fill="#FE4229" d="M216.462,149.302h-0.048c-0.16,0.168-0.351,0.339-0.574,0.515s-0.479,0.341-0.766,0.497 c-0.287,0.155-0.606,0.281-0.957,0.376s-0.73,0.144-1.136,0.144c-0.551,0-1.065-0.085-1.543-0.257s-0.889-0.419-1.232-0.742 c-0.343-0.323-0.612-0.714-0.808-1.172s-0.293-0.971-0.293-1.537c0-0.622,0.113-1.181,0.341-1.675 c0.227-0.495,0.544-0.914,0.951-1.256c0.406-0.343,0.893-0.604,1.459-0.784c0.566-0.179,1.192-0.269,1.878-0.269 c0.502,0,0.965,0.032,1.388,0.096c0.422,0.064,0.793,0.14,1.113,0.227v-0.466c0-0.271-0.046-0.532-0.138-0.784 c-0.092-0.251-0.239-0.474-0.443-0.67c-0.203-0.195-0.468-0.351-0.795-0.466s-0.726-0.173-1.196-0.173 c-0.574,0-1.148,0.063-1.723,0.191c-0.574,0.127-1.196,0.319-1.866,0.574v-2.213c0.582-0.255,1.2-0.451,1.854-0.586 c0.653-0.135,1.34-0.207,2.058-0.215c0.845,0,1.585,0.104,2.219,0.311c0.634,0.208,1.165,0.493,1.591,0.855 c0.426,0.363,0.746,0.792,0.957,1.286s0.317,1.033,0.317,1.615v4.366c0,0.766,0.008,1.424,0.024,1.974 c0.016,0.551,0.032,1.041,0.048,1.472h-2.56L216.462,149.302z M216.235,145.594c-0.271-0.064-0.583-0.122-0.934-0.174 c-0.351-0.052-0.706-0.078-1.064-0.078c-0.694,0-1.242,0.138-1.645,0.413c-0.403,0.275-0.604,0.696-0.604,1.262 c0,0.263,0.046,0.493,0.138,0.688s0.215,0.357,0.371,0.484c0.156,0.127,0.337,0.223,0.544,0.287 c0.207,0.064,0.427,0.096,0.658,0.096c0.287,0,0.558-0.038,0.813-0.114c0.255-0.076,0.49-0.171,0.706-0.287 c0.215-0.115,0.409-0.245,0.58-0.389s0.317-0.283,0.437-0.418V145.594z"></path> <path fill="#FE4229" d="M227.373,150.833c-1.165,0-2.129-0.197-2.895-0.592c-0.766-0.395-1.344-0.927-1.734-1.597 c-0.208-0.359-0.361-0.753-0.461-1.184s-0.149-0.909-0.149-1.436v-7.082h2.835v6.783c0,0.391,0.028,0.728,0.084,1.011 c0.056,0.283,0.14,0.528,0.251,0.736c0.191,0.351,0.463,0.612,0.813,0.784c0.351,0.171,0.77,0.257,1.256,0.257 c0.51,0,0.947-0.096,1.31-0.287c0.363-0.191,0.636-0.483,0.819-0.874c0.184-0.375,0.275-0.897,0.275-1.567v-6.843h2.835v7.082 c0,0.941-0.164,1.734-0.49,2.38c-0.184,0.367-0.421,0.7-0.712,0.999c-0.291,0.299-0.634,0.554-1.029,0.766 c-0.395,0.211-0.841,0.375-1.34,0.49S227.986,150.833,227.373,150.833z"></path> <path fill="#FE4229" d="M242.685,150.523c-0.319,0.096-0.7,0.171-1.143,0.227c-0.442,0.056-0.855,0.083-1.238,0.083 c-0.974,0-1.769-0.157-2.387-0.472s-1.055-0.768-1.31-1.358c-0.184-0.423-0.275-0.997-0.275-1.723v-6.005h-2.166v-2.333h2.166 v-3.242h2.835v3.242h3.35v2.333h-3.35v5.634c0,0.447,0.067,0.778,0.203,0.993c0.239,0.367,0.714,0.55,1.424,0.55 c0.327,0,0.652-0.026,0.975-0.078c0.323-0.052,0.628-0.118,0.915-0.197V150.523z"></path> <path fill="#FE4229" d="M250.867,148.549c0.551,0,1.125-0.056,1.723-0.167c0.599-0.112,1.204-0.271,1.818-0.479v2.261 c-0.367,0.16-0.929,0.312-1.687,0.455s-1.543,0.215-2.356,0.215c-0.822,0-1.602-0.105-2.339-0.317 c-0.738-0.211-1.382-0.552-1.932-1.023c-0.55-0.47-0.987-1.081-1.31-1.83c-0.323-0.75-0.484-1.659-0.484-2.728 c0-1.053,0.151-1.974,0.455-2.764c0.303-0.789,0.709-1.443,1.22-1.962c0.51-0.518,1.095-0.907,1.752-1.166 c0.658-0.259,1.338-0.389,2.04-0.389c0.734,0,1.41,0.111,2.028,0.335c0.618,0.223,1.153,0.574,1.603,1.053 c0.451,0.479,0.802,1.094,1.053,1.848c0.251,0.753,0.377,1.645,0.377,2.673c-0.008,0.399-0.02,0.738-0.036,1.017h-7.596 c0.04,0.534,0.16,0.991,0.359,1.37c0.199,0.379,0.46,0.686,0.784,0.921c0.323,0.235,0.7,0.407,1.13,0.514 C249.898,148.495,250.365,148.549,250.867,148.549z M249.731,140.869c-0.359,0-0.678,0.066-0.957,0.197 c-0.279,0.132-0.521,0.311-0.724,0.539c-0.204,0.227-0.365,0.492-0.485,0.795c-0.119,0.303-0.199,0.626-0.239,0.969h4.558 c0-0.343-0.046-0.666-0.138-0.969c-0.091-0.303-0.227-0.568-0.407-0.795c-0.179-0.228-0.402-0.407-0.67-0.539 C250.403,140.935,250.09,140.869,249.731,140.869z"></path> <path fill="#FE4229" d="M257.339,143.261h5.276v2.572h-5.276V143.261z"></path> <path fill="#FE4229" d="M273.358,145.941c0-0.407-0.1-0.736-0.299-0.987c-0.199-0.251-0.471-0.457-0.813-0.616 s-0.728-0.289-1.154-0.389s-0.875-0.198-1.346-0.293c-0.622-0.135-1.216-0.297-1.782-0.484c-0.566-0.187-1.065-0.446-1.496-0.777 s-0.774-0.752-1.029-1.262c-0.255-0.51-0.383-1.148-0.383-1.914c0-0.845,0.147-1.581,0.442-2.207s0.696-1.145,1.203-1.555 s1.101-0.718,1.782-0.921c0.682-0.203,1.45-0.305,2.303-0.305c0.853,0,1.71,0.084,2.572,0.251s1.603,0.383,2.225,0.646v2.512 c-0.83-0.327-1.625-0.564-2.387-0.712c-0.762-0.147-1.478-0.221-2.147-0.221c-0.965,0-1.708,0.175-2.231,0.526 c-0.522,0.351-0.784,0.877-0.784,1.579c0,0.407,0.086,0.742,0.257,1.005s0.405,0.48,0.7,0.652 c0.295,0.172,0.634,0.309,1.017,0.413c0.383,0.104,0.79,0.2,1.22,0.287c0.678,0.144,1.326,0.31,1.944,0.497 c0.618,0.188,1.167,0.449,1.645,0.784s0.857,0.771,1.137,1.31c0.279,0.538,0.418,1.226,0.418,2.063 c0,0.861-0.16,1.607-0.479,2.237c-0.319,0.63-0.771,1.151-1.358,1.562c-0.586,0.411-1.298,0.716-2.135,0.915 s-1.754,0.299-2.751,0.299c-0.869,0-1.725-0.085-2.566-0.257s-1.542-0.413-2.1-0.724v-2.477c0.79,0.343,1.559,0.592,2.309,0.748 c0.749,0.156,1.523,0.233,2.32,0.233c0.463,0,0.917-0.038,1.364-0.114c0.446-0.076,0.847-0.205,1.202-0.389 c0.354-0.184,0.64-0.433,0.855-0.748C273.25,146.792,273.358,146.403,273.358,145.941z"></path> <path fill="#FE4229" d="M286.086,149.302h-0.048c-0.16,0.168-0.351,0.339-0.574,0.515s-0.479,0.341-0.766,0.497 c-0.287,0.155-0.606,0.281-0.957,0.376s-0.73,0.144-1.136,0.144c-0.551,0-1.065-0.085-1.543-0.257s-0.889-0.419-1.232-0.742 c-0.343-0.323-0.612-0.714-0.808-1.172s-0.293-0.971-0.293-1.537c0-0.622,0.113-1.181,0.341-1.675 c0.227-0.495,0.544-0.914,0.951-1.256c0.406-0.343,0.893-0.604,1.459-0.784c0.566-0.179,1.192-0.269,1.878-0.269 c0.502,0,0.965,0.032,1.388,0.096c0.422,0.064,0.793,0.14,1.113,0.227v-0.466c0-0.271-0.046-0.532-0.138-0.784 c-0.092-0.251-0.239-0.474-0.443-0.67c-0.203-0.195-0.468-0.351-0.795-0.466s-0.726-0.173-1.196-0.173 c-0.574,0-1.148,0.063-1.723,0.191c-0.574,0.127-1.196,0.319-1.866,0.574v-2.213c0.582-0.255,1.2-0.451,1.854-0.586 c0.653-0.135,1.34-0.207,2.058-0.215c0.845,0,1.585,0.104,2.219,0.311c0.634,0.208,1.165,0.493,1.591,0.855 c0.426,0.363,0.746,0.792,0.957,1.286s0.317,1.033,0.317,1.615v4.366c0,0.766,0.008,1.424,0.024,1.974 c0.016,0.551,0.032,1.041,0.048,1.472h-2.56L286.086,149.302z M285.859,145.594c-0.271-0.064-0.583-0.122-0.934-0.174 c-0.351-0.052-0.706-0.078-1.064-0.078c-0.694,0-1.242,0.138-1.645,0.413c-0.403,0.275-0.604,0.696-0.604,1.262 c0,0.263,0.046,0.493,0.138,0.688s0.215,0.357,0.371,0.484c0.156,0.127,0.337,0.223,0.544,0.287 c0.207,0.064,0.427,0.096,0.658,0.096c0.287,0,0.558-0.038,0.813-0.114c0.255-0.076,0.49-0.171,0.706-0.287 c0.215-0.115,0.409-0.245,0.58-0.389s0.317-0.283,0.437-0.418V145.594z"></path> <path fill="#FE4229" d="M302.93,144.745c0,0.909-0.136,1.739-0.407,2.488c-0.271,0.75-0.66,1.392-1.167,1.926 c-0.506,0.535-1.119,0.947-1.836,1.238s-1.519,0.437-2.404,0.437c-0.909,0-1.725-0.146-2.446-0.437s-1.334-0.704-1.836-1.238 c-0.502-0.534-0.887-1.176-1.154-1.926s-0.401-1.579-0.401-2.488s0.136-1.739,0.407-2.488s0.66-1.392,1.167-1.926 c0.506-0.535,1.118-0.947,1.836-1.238s1.52-0.437,2.405-0.437c0.909,0,1.725,0.146,2.446,0.437 c0.722,0.291,1.334,0.704,1.836,1.238c0.502,0.534,0.887,1.176,1.154,1.926C302.797,143.006,302.93,143.835,302.93,144.745z M295.765,132.914h2.464l2.513,4.175h-2.213l-1.507-2.536h-0.048l-1.507,2.536h-2.213L295.765,132.914z M299.999,144.745 c0-0.614-0.071-1.156-0.215-1.627s-0.343-0.865-0.599-1.185c-0.255-0.319-0.562-0.558-0.921-0.718 c-0.359-0.159-0.75-0.239-1.172-0.239c-0.415,0-0.799,0.08-1.154,0.239c-0.355,0.16-0.66,0.399-0.916,0.718 c-0.255,0.319-0.454,0.714-0.598,1.185s-0.216,1.013-0.216,1.627s0.072,1.156,0.216,1.627s0.345,0.863,0.604,1.178 c0.259,0.315,0.566,0.555,0.921,0.718c0.355,0.164,0.744,0.246,1.167,0.246s0.81-0.082,1.16-0.246 c0.351-0.163,0.654-0.402,0.909-0.718c0.255-0.315,0.455-0.708,0.599-1.178S299.999,145.359,299.999,144.745z"></path> <path fill="#FE4229" d="M308.05,140.558h0.048c0.167-0.239,0.378-0.475,0.634-0.706c0.255-0.231,0.546-0.435,0.873-0.61 s0.688-0.317,1.083-0.425c0.395-0.107,0.815-0.161,1.262-0.161c0.423,0,0.832,0.048,1.226,0.144 c0.395,0.096,0.755,0.245,1.083,0.448c0.327,0.204,0.616,0.467,0.868,0.79c0.251,0.323,0.449,0.708,0.592,1.155 c0.079,0.247,0.133,0.516,0.161,0.807c0.028,0.292,0.042,0.628,0.042,1.011v7.524h-2.835v-7.082c0-0.311-0.012-0.578-0.036-0.802 c-0.024-0.223-0.068-0.418-0.132-0.586c-0.144-0.367-0.36-0.63-0.652-0.79c-0.291-0.16-0.644-0.239-1.059-0.239 c-0.55,0-1.079,0.13-1.585,0.389c-0.506,0.259-0.956,0.636-1.346,1.13v7.979h-2.835v-11.592h2.345L308.05,140.558z"></path> <path fill="#FE4229" d="M325.002,148.549c0.55,0,1.124-0.056,1.723-0.167c0.598-0.112,1.204-0.271,1.818-0.479v2.261 c-0.367,0.16-0.93,0.312-1.687,0.455c-0.758,0.144-1.543,0.215-2.357,0.215c-0.821,0-1.601-0.105-2.338-0.317 c-0.738-0.211-1.382-0.552-1.932-1.023c-0.55-0.47-0.987-1.081-1.31-1.83c-0.323-0.75-0.484-1.659-0.484-2.728 c0-1.053,0.151-1.974,0.455-2.764c0.303-0.789,0.71-1.443,1.22-1.962c0.51-0.518,1.095-0.907,1.752-1.166 c0.658-0.259,1.338-0.389,2.04-0.389c0.733,0,1.409,0.111,2.027,0.335c0.618,0.223,1.152,0.574,1.603,1.053 s0.802,1.094,1.053,1.848c0.251,0.753,0.377,1.645,0.377,2.673c-0.008,0.399-0.02,0.738-0.036,1.017h-7.597 c0.04,0.534,0.159,0.991,0.359,1.37c0.199,0.379,0.46,0.686,0.784,0.921c0.323,0.235,0.7,0.407,1.13,0.514 C324.033,148.495,324.499,148.549,325.002,148.549z M323.865,140.869c-0.359,0-0.678,0.066-0.957,0.197 c-0.279,0.132-0.521,0.311-0.724,0.539c-0.204,0.227-0.365,0.492-0.484,0.795c-0.12,0.303-0.2,0.626-0.239,0.969h4.558 c0-0.343-0.046-0.666-0.138-0.969s-0.227-0.568-0.407-0.795c-0.179-0.228-0.403-0.407-0.67-0.539 C324.537,140.935,324.224,140.869,323.865,140.869z"></path> </g> </g> </svg> 